PathFileType	4	(x/y/z)	S10_PSF_T07
DataRate	CameraRate	NumFrames	NumMarkers	Units	OrigDataRate	OrigDataStartFrame	OrigNumFrames
240	240	8	51	mm	240	162	431
Frame#	Time	Sternum			R.Acromium			L.Acromium			Top.Head			R.ASIS			L.ASIS			R.PSIS			L.PSIS			R.Great.Tro			L.Great.Tro			R.Iliac.Crest			L.Iliac.Crest			V.Sacral			R.Thigh.Upper.Post			R.Thigh.Lower.Ant			R.Thigh.Lower.Post			R.Thigh.Upper.Ant			R.Knee.Lat			R.Knee.Med			R.Shank.Upper.Post			R.Shank.Lower.Ant			R.Shank.Lower.Post			R.Shank.Upper.Ant			R.Ankle.Lat			R.Ankle.Med			R.Heel.Upper			R.Heel.Med			R.Heel.Lat			R.Toe.Lat			R.Toe.Med			R.Toe.Tip			L.Thigh.Upper.Post			L.Thigh.Lower.Ant			L.Thigh.Lower.Post			L.Thigh.Upper.Ant			L.Knee.Lat			L.Knee.Med			L.Shank.Upper.Post			L.Shank.Lower.Ant			L.Shank.Lower.Post			L.Shank.Upper.Ant			L.Ankle.Lat			L.Ankle.Med			L.Heel.Upper			L.Heel.Med			L.Heel.Lat			L.Toe.Lat			L.Toe.Med			L.Toe.Tip			Cervical.Spine			Back			
		X1	Y1	Z1	X2	Y2	Z2	X3	Y3	Z3	X4	Y4	Z4	X5	Y5	Z5	X6	Y6	Z6	X7	Y7	Z7	X8	Y8	Z8	X9	Y9	Z9	X10	Y10	Z10	X11	Y11	Z11	X12	Y12	Z12	X13	Y13	Z13	X14	Y14	Z14	X15	Y15	Z15	X16	Y16	Z16	X17	Y17	Z17	X18	Y18	Z18	X19	Y19	Z19	X20	Y20	Z20	X21	Y21	Z21	X22	Y22	Z22	X23	Y23	Z23	X24	Y24	Z24	X25	Y25	Z25	X26	Y26	Z26	X27	Y27	Z27	X28	Y28	Z28	X29	Y29	Z29	X30	Y30	Z30	X31	Y31	Z31	X32	Y32	Z32	X33	Y33	Z33	X34	Y34	Z34	X35	Y35	Z35	X36	Y36	Z36	X37	Y37	Z37	X38	Y38	Z38	X39	Y39	Z39	X40	Y40	Z40	X41	Y41	Z41	X42	Y42	Z42	X43	Y43	Z43	X44	Y44	Z44	X45	Y45	Z45	X46	Y46	Z46	X47	Y47	Z47	X48	Y48	Z48	X49	Y49	Z49	X50	Y50	Z50	X51	Y51	Z51	

162	0.67083	-437.63	1241.7	348.97	-584.79	1392.5	487.63	-531.23	1438.2	196.2	-619.85	1715.1	356.86	-498.54	990.04	438.24	-495.2	984.37	208.29	-699.63	1000.1	347.84	-690.88	1003.3	267.87	-555.2	918.05	513	-566.25	915.57	153.09	-599.01	1068.6	478.28	-555.96	1060.4	180.21	-717.51	967.51	312.44	-462.47	721.18	501.65	-388.46	669.65	453.11	-437.14	635.74	488.55	-413.99	757.05	460.35	-397.6	518.89	441.78	-426.02	523.45	317.96	-439.48	285.96	447.96	-372.07	230.24	422.5	-431.87	212.26	440.31	-373.75	307.65	429.13	-412.82	108.7	415.09	-406.39	120.8	336.34	-475.23	64.902	370.51	-464.59	35.49	344.05	-468.17	40.938	405.51	-295.68	40.416	448.16	-267.52	44.719	338.89	-209.38	62.315	380.72	-659.26	653.59	175.99	-601.05	560.19	187.37	-674.04	560.71	195.48	-580.77	646.77	167.64	-670.04	475.22	193.65	-639.95	457.35	319.15	-857.67	366.29	197.22	-873.15	255.84	200.46	-910.45	308.94	205.29	-820.27	313.13	193.31	-980.91	198.05	212.57	-955.41	193.75	294.51	-1035.9	228.68	259.15	-1049.8	204.16	295.74	-1060.5	205.15	232.04	-976.1	60.401	193.27	-943.71	54.365	297.66	-901.76	38.35	252.66	-637.04	1468.3	338.54	-720.82	1265	297.8
163	0.675	-431.74	1242.6	349.28	-578.69	1393.2	488.05	-525.81	1439	196.56	-614.28	1715.7	357.45	-492.56	990.7	438.8	-489.67	984.95	208.83	-693.77	1000.6	348.53	-685.25	1003.7	268.52	-549.15	918.75	513.59	-560.5	915.77	153.84	-593	1069.3	478.88	-550.5	1060.9	180.81	-711.73	967.96	313.21	-457.01	721.52	502.16	-383.17	669.75	453.62	-431.97	635.98	489.02	-408.39	757.24	460.94	-393.14	518.8	442.06	-420.69	523.95	318.24	-437.19	286.23	448.07	-370.36	229.82	422.53	-430.34	212.45	440.33	-371.25	307.24	429.23	-412.48	108.8	414.97	-405.84	120.93	336.27	-475.17	64.917	370.49	-464.58	35.495	344.06	-468.14	40.974	405.51	-295.65	40.482	448.18	-267.44	44.596	338.82	-209.28	62.041	380.71	-650.74	652.43	176.2	-591.5	559.62	186.88	-664.51	559.21	195.47	-572.18	646.56	167.32	-659.61	474.32	193.13	-628.18	455.58	318.27	-847.91	368	197.02	-864.87	257.76	199.65	-901.52	311.38	204.96	-811.26	314.37	192.67	-973.1	201.51	211.71	-947.9	196.65	293.91	-1026.4	234.06	258.31	-1041.3	210.24	294.99	-1052	211.43	231.27	-973.08	62.996	193.06	-941.07	56.136	297.52	-900.05	37.854	252.43	-631.41	1468.9	339.1	-715.09	1265.5	298.51
164	0.67917	-425.9	1243.4	349.53	-572.58	1394	488.47	-520.48	1439.7	196.88	-608.7	1716.4	358.03	-486.6	991.32	439.34	-484.2	985.54	209.34	-687.95	1001.2	349.25	-679.66	1004.2	269.21	-543.11	919.42	514.19	-554.84	915.98	154.58	-586.97	1069.9	479.49	-545.12	1061.4	181.39	-706.01	968.42	314.02	-451.69	721.79	502.7	-378.04	669.73	454.19	-427	636.15	489.52	-402.89	757.33	461.57	-388.91	518.64	442.4	-415.5	524.34	318.57	-435.05	286.46	448.18	-368.75	229.38	422.59	-428.92	212.62	440.35	-368.87	306.8	429.38	-412.16	108.89	414.85	-405.31	121.06	336.21	-475.12	64.928	370.47	-464.58	35.499	344.08	-468.11	41.003	405.5	-295.63	40.543	448.2	-267.36	44.49	338.75	-209.2	61.801	380.7	-642.23	651.32	176.35	-581.96	559.11	186.33	-654.95	557.79	195.4	-563.61	646.39	166.94	-649.12	473.48	192.59	-616.33	453.9	317.37	-837.97	369.74	196.79	-856.39	259.72	198.84	-892.39	313.85	204.6	-802.09	315.64	192.03	-965.02	205.01	210.81	-940.19	199.63	293.33	-1016.7	239.39	257.42	-1032.6	216.28	294.21	-1043.2	217.66	230.46	-969.73	65.746	192.83	-938.07	58.059	297.37	-898.08	37.404	252.17	-625.8	1469.5	339.65	-709.4	1266.1	299.25
165	0.68333	-420.11	1244.2	349.73	-566.47	1394.7	488.87	-515.23	1440.4	197.15	-603.13	1717	358.61	-480.65	991.91	439.85	-478.78	986.13	209.8	-682.16	1001.7	350	-674.13	1004.6	269.93	-537.09	920.04	514.79	-549.25	916.21	155.31	-580.94	1070.5	480.12	-539.81	1062	181.96	-700.33	968.88	314.86	-446.52	722.01	503.26	-373.06	669.61	454.82	-422.22	636.24	490.05	-397.48	757.33	462.24	-384.91	518.39	442.79	-410.48	524.64	318.94	-433.04	286.65	448.28	-367.24	228.94	422.7	-427.6	212.75	440.37	-366.63	306.34	429.56	-411.87	108.96	414.76	-404.81	121.18	336.16	-475.07	64.936	370.46	-464.58	35.502	344.1	-468.08	41.026	405.5	-295.6	40.597	448.22	-267.29	44.397	338.68	-209.12	61.586	380.69	-633.72	650.25	176.45	-572.44	558.67	185.74	-645.37	556.44	195.27	-555.1	646.27	166.5	-638.58	472.71	192.02	-604.43	452.33	316.45	-827.87	371.49	196.54	-847.73	261.73	198.05	-883.08	316.34	204.22	-792.75	316.95	191.41	-956.68	208.55	209.87	-932.29	202.69	292.77	-1006.7	244.65	256.5	-1023.5	222.26	293.4	-1034.1	223.82	229.61	-966.04	68.638	192.58	-934.7	60.127	297.21	-895.81	37.021	251.87	-620.23	1470.1	340.2	-703.73	1266.6	300.03
166	0.6875	-414.37	1245.1	349.88	-560.35	1395.5	489.26	-510.06	1441.2	197.39	-597.55	1717.7	359.17	-474.71	992.46	440.32	-473.41	986.72	210.23	-676.4	1002.2	350.78	-668.65	1005	270.68	-531.09	920.64	515.4	-543.75	916.45	156.02	-574.9	1071.1	480.76	-534.57	1062.5	182.5	-694.69	969.34	315.74	-441.48	722.17	503.83	-368.22	669.39	455.5	-417.63	636.27	490.59	-392.17	757.24	462.93	-381.13	518.09	443.22	-405.65	524.84	319.34	-431.15	286.81	448.38	-365.83	228.49	422.84	-426.37	212.87	440.4	-364.52	305.86	429.77	-411.59	109.03	414.68	-404.32	121.29	336.13	-475.03	64.943	370.45	-464.57	35.507	344.13	-468.05	41.044	405.49	-295.58	40.642	448.24	-267.23	44.313	338.62	-209.05	61.393	380.69	-625.23	649.25	176.49	-562.94	558.31	185.09	-635.78	555.19	195.09	-546.63	646.21	166	-628	472.03	191.45	-592.5	450.89	315.54	-817.61	373.27	196.26	-838.88	263.77	197.27	-873.58	318.86	203.8	-783.25	318.3	190.8	-948.09	212.12	208.89	-924.19	205.81	292.24	-996.65	249.81	255.57	-1014.3	228.15	292.57	-1024.8	229.87	228.75	-961.98	71.655	192.31	-930.93	62.327	297.02	-893.22	36.727	251.52	-614.68	1470.7	340.76	-698.11	1267.2	300.86
167	0.69167	-408.67	1245.9	349.97	-554.21	1396.3	489.64	-504.97	1441.9	197.59	-591.98	1718.4	359.71	-468.8	992.97	440.77	-468.1	987.3	210.61	-670.68	1002.7	351.6	-663.21	1005.5	271.47	-525.11	921.2	516	-538.32	916.72	156.73	-568.84	1071.6	481.41	-529.41	1063	183.02	-689.11	969.81	316.66	-436.59	722.29	504.41	-363.53	669.09	456.22	-413.22	636.25	491.16	-386.97	757.07	463.66	-377.54	517.73	443.69	-401.05	524.95	319.77	-429.37	286.93	448.48	-364.5	228.03	423.01	-425.23	212.96	440.42	-362.52	305.37	430.01	-411.32	109.08	414.61	-403.86	121.4	336.1	-474.99	64.95	370.45	-464.57	35.513	344.15	-468.03	41.057	405.49	-295.55	40.678	448.26	-267.17	44.237	338.57	-208.99	61.217	380.69	-616.76	648.32	176.5	-553.46	558.05	184.41	-626.2	554.03	194.87	-538.23	646.21	165.47	-617.38	471.44	190.86	-580.56	449.6	314.65	-807.21	375.07	195.95	-829.87	265.85	196.52	-863.92	321.4	203.37	-773.6	319.69	190.2	-939.27	215.73	207.88	-915.91	208.97	291.72	-986.41	254.86	254.63	-1004.9	233.91	291.73	-1015.3	235.78	227.87	-957.53	74.776	192.02	-926.72	64.643	296.8	-890.26	36.546	251.14	-609.15	1471.3	341.31	-692.51	1267.8	301.73
168	0.69583	-403.01	1246.7	349.99	-548.06	1397.1	490	-499.96	1442.6	197.74	-586.42	1719.1	360.25	-462.9	993.46	441.17	-462.83	987.88	210.95	-665	1003.2	352.45	-657.81	1005.9	272.28	-519.17	921.73	516.61	-532.97	917	157.42	-562.78	1072.1	482.06	-524.31	1063.5	183.5	-683.56	970.29	317.62	-431.82	722.37	504.99	-358.99	668.72	456.97	-408.98	636.18	491.74	-381.86	756.84	464.39	-374.15	517.33	444.19	-396.7	524.99	320.23	-427.71	287.04	448.57	-363.26	227.58	423.21	-424.18	213.04	440.45	-360.64	304.87	430.27	-411.07	109.12	414.56	-403.42	121.5	336.09	-474.95	64.958	370.45	-464.57	35.522	344.17	-468	41.068	405.49	-295.53	40.704	448.28	-267.12	44.167	338.52	-208.93	61.054	380.7	-608.32	647.47	176.48	-544.03	557.88	183.7	-616.63	552.97	194.63	-529.89	646.28	164.89	-606.74	470.95	190.26	-568.64	448.49	313.77	-796.69	376.89	195.61	-820.68	267.96	195.79	-854.09	323.94	202.91	-763.82	321.11	189.62	-930.21	219.34	206.85	-907.43	212.17	291.22	-976.07	259.78	253.71	-995.3	239.52	290.9	-1005.6	241.52	226.99	-952.66	77.982	191.7	-922.05	67.06	296.56	-886.89	36.502	250.71	-603.64	1472	341.86	-686.95	1268.3	302.64
169	0.7	-397.4	1247.6	349.95	-541.9	1398	490.35	-495.02	1443.3	197.86	-580.85	1719.8	360.77	-457.01	993.91	441.53	-457.62	988.44	211.24	-659.35	1003.8	353.33	-652.46	1006.3	273.13	-513.25	922.25	517.21	-527.69	917.3	158.09	-556.7	1072.7	482.71	-519.29	1063.9	183.96	-678.06	970.77	318.6	-427.19	722.42	505.57	-354.59	668.29	457.74	-404.91	636.08	492.32	-376.86	756.55	465.13	-370.93	516.9	444.71	-392.62	524.96	320.7	-426.14	287.12	448.67	-362.1	227.13	423.44	-423.2	213.11	440.48	-358.86	304.38	430.56	-410.82	109.16	414.52	-403	121.6	336.08	-474.92	64.967	370.45	-464.57	35.533	344.19	-467.98	41.077	405.49	-295.5	40.72	448.3	-267.08	44.101	338.47	-208.88	60.902	380.7	-599.92	646.71	176.43	-534.63	557.82	182.95	-607.08	552.03	194.38	-521.62	646.43	164.29	-596.06	470.58	189.65	-556.75	447.56	312.93	-786.04	378.72	195.25	-811.33	270.09	195.1	-844.12	326.49	202.43	-753.9	322.56	189.05	-920.95	222.96	205.81	-898.77	215.39	290.74	-965.65	264.53	252.82	-985.57	244.94	290.1	-995.8	247.06	226.12	-947.36	81.249	191.36	-916.9	69.558	296.28	-883.07	36.618	250.24	-598.15	1472.6	342.42	-681.42	1268.9	303.59
